<svg xmlns="http://www.w3.org/2000/svg" viewBox="0 0 1400 1400" width="30" height="30"><path d="M1375.41,1065.86c-5.66-5.36-12.42-9.94-98-67-157.08-104.47-192.67-127.74-204.7-133.3-20.19-9.25-44.54-9.35-72.08-.1C989.9,869,965.13,881.55,941,894.67c8.86,9.66,50.89,35,55.8,42.12,1-.56,2-1,2.77-1.45,16.21-8.25,27.14-11.33,40.17-11.33,7.65,0,8.65.3,13.32,3.18,14.61,9.24,97,63.62,182,120.18l95.83,63.72,2.19,5.67c1.69,4.57,2,7.06,1.59,14.51-.69,14.52-4,21-23.76,46.53a1061.11,1061.11,0,0,1-87.79,99.7c-32.21,32.21-48.51,45.33-68,54.77l-9.34,4.58-11.53-.7c-35.4-2.09-67.31-8.45-105-20.87C870.87,1262.89,684.16,1129.58,474.09,919,269.09,713.66,137.36,528.37,85.37,372.3c-12.13-36.18-18.79-68.09-21-100.7l-1.2-17.1,3.68-7.95c7.76-16.7,17.6-29.92,41.06-55.37s60.35-59.05,97.73-89.17c40.17-32.5,48.72-37.18,66.11-36.58,5.67.3,10.54,1,13.23,2.19,4.17,1.69,6.16,4.57,52.29,74,40.76,61.33,93.55,141.35,129.64,196.52L476.08,352v7.65a80.16,80.16,0,0,1-5.47,28c-3.38,9-14.51,29.22-67.8,123.06l-25.26,44.44,5.67,9.74c18.89,32.31,63.43,88.87,114.73,145.83,104.82,116.55,294.11,284.15,375.79,340,22.43-24.84,25-27.45,45.39-46.23-12.75-9.45-79.53-58.07-92.49-68.87C780.71,897.26,700,827,634.15,761.08c-84.6-84.69-134.41-140.56-172.09-193.15-4.47-6.16-8.55-12.13-9.05-13.22-.79-1.69,1.49-6.16,12.13-24.85,42.55-74.26,60.65-107.56,66.61-122.57,7.36-18.49,9.35-28.43,9.45-45.43,0-22.46-2.79-30.52-19.49-56.36C483.24,246,348.33,42.57,340.07,31.73,325.36,12.25,303.59,1.41,276.74.12a112.21,112.21,0,0,0-16.9.5C246.12,2.5,229.32,8.17,216.6,15.13c-13,7.26-32.31,21.77-65.12,49-29.63,24.75-49.11,42.44-75.06,68.49-24.16,24.25-39.27,41.65-53.49,61.43C7,216.33,1.16,230.54.16,248.84-1.13,274.68,5.33,321,15.77,360.37c38.28,143.84,146,314.92,315.65,501.51,43.95,48.31,126.37,131.91,173,175.55,126.66,118.4,239.1,204.58,347.47,266.51,104.39,59.65,201.32,92.25,284.73,95.83,16.11.7,24.16-.1,34.9-3.78,38.77-12.92,108.86-77.83,180.44-167.4,29.53-36.88,39.07-53,44.74-75.25C1405.14,1119.34,1397.19,1086.44,1375.41,1065.86Z" transform="translate(0 0)"/></svg>