<svg xmlns="http://www.w3.org/2000/svg" viewBox="0 0 141.67 139.54" width="56px" height="56px">
	<defs><style>.cls-1{fill:#af9702;}</style></defs><title>clock-icon</title>
	<path class="cls-1" d="M72.76,21.53V1.06a1,1,0,0,0-2,0V21.53c.33,0,.66,0,1,0Z" transform="translate(-0.93 -0.06)"/>
	<path class="cls-1" d="M46.69,28.5c.57-.35,1.15-.67,1.74-1L38.19,9.8a1,1,0,1,0-1.73,1Z" transform="translate(-0.93 -0.06)"/>
	<path class="cls-1" d="M11.43,34.79a1,1,0,0,0,.36,1.37L29.47,46.43c.32-.59.65-1.17,1-1.73L12.79,34.43A1,1,0,0,0,11.43,34.79Z" transform="translate(-0.93 -0.06)"/>
	<path class="cls-1" d="M107.34,8.58A1,1,0,0,0,106,9L95.17,27.54c.58.33,1.16.66,1.73,1L107.7,10A1,1,0,0,0,107.34,8.58Z" transform="translate(-0.93 -0.06)"/>
	<path class="cls-1" d="M132.71,35.73a1,1,0,0,0-1-1.73L113.09,44.77c.35.57.68,1.15,1,1.73Z" transform="translate(-0.93 -0.06)"/>
	<path class="cls-1" d="M23.43,69.83c0-.33,0-.66,0-1H1.93a1,1,0,1,0,0,2H23.45C23.44,70.5,23.43,70.17,23.43,69.83Z" transform="translate(-0.93 -0.06)"/>
	<path class="cls-1" d="M141.59,68.83H120.07c0,.34,0,.67,0,1s0,.67,0,1h21.52a1,1,0,0,0,0-2Z" transform="translate(-0.93 -0.06)"/>
	<path class="cls-1" d="M131.73,103.51,114.05,93.24c-.33.58-.66,1.16-1,1.73l17.67,10.27a1,1,0,0,0,.5.14,1,1,0,0,0,.51-1.87Z" transform="translate(-0.93 -0.06)"/>
	<path class="cls-1" d="M10.81,103.94a1,1,0,0,0,.5,1.86,1,1,0,0,0,.5-.13L30.42,94.9c-.34-.57-.67-1.15-1-1.73Z" transform="translate(-0.93 -0.06)"/>
	<path class="cls-1" d="M96.82,111.17c-.56.34-1.15.67-1.73,1l10.24,17.7a1,1,0,0,0,.87.5,1,1,0,0,0,.86-1.5Z" transform="translate(-0.93 -0.06)"/>
	<path class="cls-1" d="M35.82,129.72a1,1,0,0,0,.36,1.36,1,1,0,0,0,.5.14,1,1,0,0,0,.87-.5l10.8-18.6c-.58-.32-1.16-.65-1.73-1Z" transform="translate(-0.93 -0.06)"/>
	<path class="cls-1" d="M70.76,118.14V138.6a1,1,0,0,0,2,0V118.14l-1,0C71.42,118.17,71.09,118.15,70.76,118.14Z" transform="translate(-0.93 -0.06)"/>
	<path class="cls-1" d="M105.67,52a1.5,1.5,0,0,0-1.5-2.6L75.74,65.8h0a5.67,5.67,0,0,0-7.95,0L47.45,54a1.5,1.5,0,1,0-1.51,2.6L66.28,68.39a5.67,5.67,0,1,0,11,0ZM76.27,66.41l-.06-.08Zm.39.59,0,0Zm-9.78,0,0,0Zm.43-.63,0,.07Zm4.45,6.17a2.67,2.67,0,1,1,2.67-2.67A2.68,2.68,0,0,1,71.76,72.5Z" transform="translate(-0.93 -0.06)"/>
</svg>