<svg xmlns="http://www.w3.org/2000/svg" xmlns:xlink="http://www.w3.org/1999/xlink"><defs><style>.clock-1{fill:#201600;}</style><style>.cls-1{fill:#af9702;}</style></defs><symbol id="icon-clock" viewBox="0 0 50 50"><title>icon-clock</title><path class="clock-1" d="M25,4.21a21,21,0,1,1-21,21,21,21,0,0,1,21-21m0-4a25,25,0,1,0,25,25,25,25,0,0,0-25-25Z" transform="translate(0.05 -0.21)"/><polygon class="clock-1" points="36.47 32.84 27.49 25.69 27.49 10.4 23.22 10.4 23.22 27.78 33.8 36.18 36.47 32.84"/></symbol><symbol id="icon-clock_" viewBox="0 0 141.67 139.54">
	<title>clock-icon</title>
	<path class="cls-1" d="M72.76,21.53V1.06a1,1,0,0,0-2,0V21.53c.33,0,.66,0,1,0Z" transform="translate(-0.93 -0.06)"/>
	<path class="cls-1" d="M46.69,28.5c.57-.35,1.15-.67,1.74-1L38.19,9.8a1,1,0,1,0-1.73,1Z" transform="translate(-0.93 -0.06)"/>
	<path class="cls-1" d="M11.43,34.79a1,1,0,0,0,.36,1.37L29.47,46.43c.32-.59.65-1.17,1-1.73L12.79,34.43A1,1,0,0,0,11.43,34.79Z" transform="translate(-0.93 -0.06)"/>
	<path class="cls-1" d="M107.34,8.58A1,1,0,0,0,106,9L95.17,27.54c.58.33,1.16.66,1.73,1L107.7,10A1,1,0,0,0,107.34,8.58Z" transform="translate(-0.93 -0.06)"/>
	<path class="cls-1" d="M132.71,35.73a1,1,0,0,0-1-1.73L113.09,44.77c.35.57.68,1.15,1,1.73Z" transform="translate(-0.93 -0.06)"/>
	<path class="cls-1" d="M23.43,69.83c0-.33,0-.66,0-1H1.93a1,1,0,1,0,0,2H23.45C23.44,70.5,23.43,70.17,23.43,69.83Z" transform="translate(-0.93 -0.06)"/>
	<path class="cls-1" d="M141.59,68.83H120.07c0,.34,0,.67,0,1s0,.67,0,1h21.52a1,1,0,0,0,0-2Z" transform="translate(-0.93 -0.06)"/>
	<path class="cls-1" d="M131.73,103.51,114.05,93.24c-.33.58-.66,1.16-1,1.73l17.67,10.27a1,1,0,0,0,.5.14,1,1,0,0,0,.51-1.87Z" transform="translate(-0.93 -0.06)"/>
	<path class="cls-1" d="M10.81,103.94a1,1,0,0,0,.5,1.86,1,1,0,0,0,.5-.13L30.42,94.9c-.34-.57-.67-1.15-1-1.73Z" transform="translate(-0.93 -0.06)"/>
	<path class="cls-1" d="M96.82,111.17c-.56.34-1.15.67-1.73,1l10.24,17.7a1,1,0,0,0,.87.5,1,1,0,0,0,.86-1.5Z" transform="translate(-0.93 -0.06)"/>
	<path class="cls-1" d="M35.82,129.72a1,1,0,0,0,.36,1.36,1,1,0,0,0,.5.14,1,1,0,0,0,.87-.5l10.8-18.6c-.58-.32-1.16-.65-1.73-1Z" transform="translate(-0.93 -0.06)"/>
	<path class="cls-1" d="M70.76,118.14V138.6a1,1,0,0,0,2,0V118.14l-1,0C71.42,118.17,71.09,118.15,70.76,118.14Z" transform="translate(-0.93 -0.06)"/>
	<path class="cls-1" d="M105.67,52a1.5,1.5,0,0,0-1.5-2.6L75.74,65.8h0a5.67,5.67,0,0,0-7.95,0L47.45,54a1.5,1.5,0,1,0-1.51,2.6L66.28,68.39a5.67,5.67,0,1,0,11,0ZM76.27,66.41l-.06-.08Zm.39.59,0,0Zm-9.78,0,0,0Zm.43-.63,0,.07Zm4.45,6.17a2.67,2.67,0,1,1,2.67-2.67A2.68,2.68,0,0,1,71.76,72.5Z" transform="translate(-0.93 -0.06)"/>
</symbol><symbol id="icon-dot-arrow" viewBox="0 0 297.613 297.613">
	<circle cx="15.279" cy="14.83" r="14.83"/>
	<circle cx="59.32" cy="59.769" r="14.83"/>
	<circle cx="59.32" cy="14.83" r="14.83"/>
	<circle cx="104.261" cy="59.769" r="14.83"/>
	<circle cx="104.261" cy="103.81" r="14.83"/>
	<circle cx="104.261" cy="14.83" r="14.83"/>
	<circle cx="148.302" cy="59.769" r="14.83"/>
	<circle cx="148.302" cy="103.81" r="14.83"/>
	<circle cx="148.302" cy="14.83" r="14.83"/>
	<circle cx="192.343" cy="59.769" r="14.83"/>
	<circle cx="192.343" cy="103.81" r="14.83"/>
	<circle cx="148.302" cy="147.852" r="14.83"/>
	<circle cx="192.343" cy="147.852" r="14.83"/>
	<circle cx="104.261" cy="192.79" r="14.831"/>
	<circle cx="148.302" cy="192.79" r="14.831"/>
	<circle cx="192.343" cy="192.79" r="14.831"/>
	<circle cx="59.32" cy="236.887" r="14.83"/>
	<circle cx="104.261" cy="236.887" r="14.83"/>
	<circle cx="148.302" cy="236.887" r="14.83"/>
	<circle cx="192.343" cy="236.887" r="14.83"/>
	<circle cx="238.238" cy="103.81" r="14.83"/>
	<circle cx="238.238" cy="147.852" r="14.83"/>
	<circle cx="238.238" cy="192.79" r="14.831"/>
	<circle cx="15.279" cy="282.782" r="14.831"/>
	<circle cx="59.32" cy="282.782" r="14.831"/>
	<circle cx="104.261" cy="282.782" r="14.831"/>
	<circle cx="148.302" cy="282.782" r="14.831"/>
	<circle cx="282.334" cy="147.852" r="14.83"/>	
</symbol><symbol id="icon-facebook" viewBox="0 0 192 384">
	<path d="M128,128V89.9c0-17.2,3.8-25.9,30.5-25.9H192V0H136.1C67.6,0,45,31.4,45,85.3V128H0v64H45V384h83V192h56.4l7.6-64Z" fill="#ffffff"/>
</symbol><symbol id="icon-fb"><path fill="#FFF" d="M12 4V0H8C5.791 0 4 1.791 4 4v4H0v4h4v10h4V12h4V8H8V4h4z"/></symbol><symbol id="icon-insta"><path fill="#FFF" d="M18 0H3C1.35 0 0 1.35 0 3v15c0 1.65 1.35 3 3 3h15c1.65 0 3-1.35 3-3V3c0-1.65-1.35-3-3-3zm-7.5 7c1.93 0 3.5 1.57 3.5 3.5S12.43 14 10.5 14 7 12.43 7 10.5 8.57 7 10.5 7zM18 18H3V9h1.181C4.067 9.482 4 9.983 4 10.5c0 3.59 2.91 6.5 6.5 6.5s6.5-2.91 6.5-6.5c0-.517-.066-1.018-.181-1.5H18v9zm0-11h-4V3h4v4z"/></symbol><symbol id="icon-phone" viewBox="0 0 1400 1400"><path d="M1375.41,1065.86c-5.66-5.36-12.42-9.94-98-67-157.08-104.47-192.67-127.74-204.7-133.3-20.19-9.25-44.54-9.35-72.08-.1C989.9,869,965.13,881.55,941,894.67c8.86,9.66,50.89,35,55.8,42.12,1-.56,2-1,2.77-1.45,16.21-8.25,27.14-11.33,40.17-11.33,7.65,0,8.65.3,13.32,3.18,14.61,9.24,97,63.62,182,120.18l95.83,63.72,2.19,5.67c1.69,4.57,2,7.06,1.59,14.51-.69,14.52-4,21-23.76,46.53a1061.11,1061.11,0,0,1-87.79,99.7c-32.21,32.21-48.51,45.33-68,54.77l-9.34,4.58-11.53-.7c-35.4-2.09-67.31-8.45-105-20.87C870.87,1262.89,684.16,1129.58,474.09,919,269.09,713.66,137.36,528.37,85.37,372.3c-12.13-36.18-18.79-68.09-21-100.7l-1.2-17.1,3.68-7.95c7.76-16.7,17.6-29.92,41.06-55.37s60.35-59.05,97.73-89.17c40.17-32.5,48.72-37.18,66.11-36.58,5.67.3,10.54,1,13.23,2.19,4.17,1.69,6.16,4.57,52.29,74,40.76,61.33,93.55,141.35,129.64,196.52L476.08,352v7.65a80.16,80.16,0,0,1-5.47,28c-3.38,9-14.51,29.22-67.8,123.06l-25.26,44.44,5.67,9.74c18.89,32.31,63.43,88.87,114.73,145.83,104.82,116.55,294.11,284.15,375.79,340,22.43-24.84,25-27.45,45.39-46.23-12.75-9.45-79.53-58.07-92.49-68.87C780.71,897.26,700,827,634.15,761.08c-84.6-84.69-134.41-140.56-172.09-193.15-4.47-6.16-8.55-12.13-9.05-13.22-.79-1.69,1.49-6.16,12.13-24.85,42.55-74.26,60.65-107.56,66.61-122.57,7.36-18.49,9.35-28.43,9.45-45.43,0-22.46-2.79-30.52-19.49-56.36C483.24,246,348.33,42.57,340.07,31.73,325.36,12.25,303.59,1.41,276.74.12a112.21,112.21,0,0,0-16.9.5C246.12,2.5,229.32,8.17,216.6,15.13c-13,7.26-32.31,21.77-65.12,49-29.63,24.75-49.11,42.44-75.06,68.49-24.16,24.25-39.27,41.65-53.49,61.43C7,216.33,1.16,230.54.16,248.84-1.13,274.68,5.33,321,15.77,360.37c38.28,143.84,146,314.92,315.65,501.51,43.95,48.31,126.37,131.91,173,175.55,126.66,118.4,239.1,204.58,347.47,266.51,104.39,59.65,201.32,92.25,284.73,95.83,16.11.7,24.16-.1,34.9-3.78,38.77-12.92,108.86-77.83,180.44-167.4,29.53-36.88,39.07-53,44.74-75.25C1405.14,1119.34,1397.19,1086.44,1375.41,1065.86Z" transform="translate(0 0)"/></symbol></svg>