<svg xmlns="http://www.w3.org/2000/svg" xmlns:xlink="http://www.w3.org/1999/xlink" viewBox="0 0 200 200" width="120" height="120"><defs><style>.logo-1{fill:none;}.logo-2{fill:url(#gradient-circle);}.logo-3{fill:#519e77;}.logo-4{fill:#eff6f2;}.logo-5{fill:#bed3c3;}.logo-6{fill:#79b38c;}</style><radialGradient id="gradient-circle" cx="-297.55" cy="170.08" fx="-394.24032413879013" r="111.91" gradientTransform="matrix(-0.65, -0.46, 0.49, -0.69, -184.85, 71.08)" gradientUnits="userSpaceOnUse"><stop offset="0.06" stop-color="#00e180"/><stop offset="0.15" stop-color="#68bc90"/><stop offset="0.54" stop-color="#80b494"/><stop offset="0.96" stop-color="#519e79"/></radialGradient></defs><title>Taylored Wellness</title><rect class="logo-1" width="200" height="200"/><circle class="logo-2" cx="101.44" cy="99.84" r="98.56"/><path class="logo-3" d="M169.36,28.4c-.4.72-1,1.6-1.36,2.32-9.92,16-26.8,34.56-46.48,46.88C47.92,123.76,16.17,109,3.05,94.16c-.16,1.84-.25,3.68-.25,5.6A98.6,98.6,0,1,0,169.36,28.4Z"/><path class="logo-4" d="M174.24,49.76c-5.6-.64-8.24,1.76-13.36,1.68-4.08,0-8.48-.16-12.88.16-2.32.16-4.64,1-7,.88s-4.64-.72-7-.72c-2.64-.08-5.2.48-7.44.16-2.72-.32-4.56-1.2-6.88-1.6-7-1-11.92-2.16-11.92-4.4-.08-6.88,4.88-3.92,3.28-14.8-1.12-8-8.72-7.52-8.72-7.52a5.27,5.27,0,0,0-.16.72,5.27,5.27,0,0,0-.16-.72,8.35,8.35,0,0,0-8.72,7.52c-1.6,10.8,3.36,7.92,3.28,14.8,0,2.16-5,3.28-11.92,4.4-2.32.4-4.16,1.2-6.88,1.6-2.24.32-4.8-.24-7.44-.16-2.32.08-4.72.72-7,.72s-4.64-.72-7-.88c-4.48-.32-8.8-.16-12.88-.16-5.2,0-7.68-2.32-13.36-1.68-2.24.24-7.68,2.08-7.36,3.76.56,2.72,6.32,1.28,15.52,2.08,4.48.4,10.72,2.88,15.68,3.28,3.44.32,6.8.4,10,.48,3.92.16,6.8,1.12,9.68,1.28,4.08.16,6.64-1.2,7.84.16,6,6.8,8.32,17,4.24,43.44-1.84,12.24,1.28,47,4.24,68.72.32,2.32-2.32,6.16-3.92,9.92a14.23,14.23,0,0,0-1.2,6.64c.16,1.68,5,.56,7.36-1.68,1.84-1.84,2.72-4.08,4.16-6,1.6-2.16,3.44-3.36,3.36-4.56-.32-6.16-2.48-6.24-2.48-13.12,0-2.8,1-9,1-11.36-1-20.32-.56-28.08,3.6-36.24a.28.28,0,0,1,.08-.16.28.28,0,0,0,.08.16c4.16,8.24,4.56,16,3.6,36.24-.16,2.48,1,8.56,1,11.36,0,6.88-2.16,7-2.48,13.12-.08,1.2,1.68,2.48,3.36,4.56,1.44,1.92,2.4,4.16,4.16,6,2.32,2.16,7,3.36,7.36,1.68a14.23,14.23,0,0,0-1.2-6.64c-1.6-3.76-4.16-7.6-3.92-9.92,3-21.76,6.16-56.56,4.24-68.72-4.08-26.48-1.76-36.72,4.24-43.44,1.2-1.36,3.76,0,7.84-.16,2.88-.16,5.76-1,9.68-1.28,3.12-.16,6.48-.24,10-.48,5-.4,11.28-3,15.68-3.28,9.2-.72,15,.64,15.52-2.08C181.92,51.84,176.56,50,174.24,49.76Z"/><path class="logo-5" d="M182.16,23C170.4,50,157,66.48,123.84,89.36,96,108.64,57.6,121.6,33.76,120.48c-22-1-30.32-15.28-30.88-16.88-4.48,16.4-4.16,29,4.4,40.4C19,159.44,70.4,160.16,123.84,123.12,172.08,89.6,193.28,54.64,182.16,23Z"/><path class="logo-6" d="M194.24,41.84s3,47-73,94.8C35.84,190.4,7.76,148.72,7.76,148.72s16.64,64.88,126.4-3.92c19.68-12.32,37.92-31.44,47.52-45.12C205.2,66,194.24,41.84,194.24,41.84Z"/></svg>