<svg xmlns="http://www.w3.org/2000/svg" viewBox="0 0 663.13 276.63" width="160px" height="70px">
	<path d="M421.35,218.88c0,.13,5.54,10.18,12.21,22.36l12.12,22.13-54.3.05c-29.86,0-54.3.09-54.3.16s9,9.11,19.93,20.06L377,303.58,357,323.53c-11,11-19.93,20-19.93,20.06s24.44.14,54.3.15l54.29.06-12.2,22.28c-6.7,12.25-12.16,22.32-12.1,22.35s173-84.71,173-84.85-172.76-84.9-173-84.9C421.33,218.68,421.3,218.78,421.35,218.88Z" transform="translate(-106.83 -111.8)" fill="#e0a100"/>
	<path d="M290.6,263.58c0,.08,9,9.11,19.93,20.06l19.94,19.94-19.94,19.95c-10.95,11-19.93,20-19.93,20.06s5.76.12,12.8.12h12.78l20.06-20.06,20.07-20.07-20.07-20.06-20.06-20.07H303.4C296.36,263.45,290.6,263.51,290.6,263.58Z" transform="translate(-106.83 -111.8)" fill="#e0a100"/>
	<path d="M264.61,283.78l19.8,19.8-19.8,19.81-19.81,19.8h25.66l19.86-19.85,19.84-19.84-19.77-19.77L270.63,264H244.8Z" transform="translate(-106.83 -111.8)" fill="#e0a100"/>
	<path d="M218.63,284l19.55,19.54-19.55,19.55-19.54,19.55h25.83l19.55-19.55L264,303.58,244.47,284l-19.55-19.55H199.09Z" transform="translate(-106.83 -111.8)" fill="#e0a100"/>
	<path d="M152.63,265c0,.09,8.66,8.8,19.23,19.38l19.26,19.25-19.26,19.26c-10.57,10.57-19.23,19.28-19.23,19.37s5.75.12,12.79.12H178.2L197.58,323,217,303.58l-19.37-19.37L178.2,264.83H165.42C158.38,264.83,152.63,264.88,152.63,265Z" transform="translate(-106.83 -111.8)" fill="#e0a100"/>
	<path d="M125.91,284.43,145,303.5l-19,19c-10.47,10.47-19,19.08-19,19.15s5.75.13,12.8.13h12.78l19.08-19.08c10.49-10.49,19.06-19.15,19.06-19.23s-8.54-8.72-19-19.17l-19-19H106.83Z" transform="translate(-106.83 -111.8)" fill="#e0a100"/>
	<path d="M387.06,248.93a37.87,37.87,0,0,0-4.1,2L406.52,253a38.21,38.21,0,0,0-5.14-3.58A20.94,20.94,0,0,0,387.06,248.93Z" transform="translate(-106.83 -111.8)" fill="#e0a100"/>
	<path d="M213.71,249.66c-2.1-12.72-6.44-21.84-12.22-24.88-2.53-1.33-4-1.26-6.6.35-5.26,3.2-9.4,12.1-11.58,24.54Z" transform="translate(-106.83 -111.8)" fill="#e0a100" opacity="0.8"/>
	<path d="M769.64,287.69c-.84-16.64-2.32-24.57-4.43-24.57-.42,0-6,2.38-12.49,5.26s-11.94,5.27-12.15,5.27a31.92,31.92,0,0,1-3.51-5.41l-3.16-5.47,3.58-6.67c2-3.66,5.13-9.13,7-12.15s3.37-6,3.37-6.53c0-1.48-9.76-10.81-15.51-14.82-16.57-11.37-36.72-19.73-66.56-27.59l-3.09-.84,5.75-2.74c6.81-3.37,8.43-5.48,6.88-9.27-2.17-5.19-9.47-9.48-19.51-11.44s-12.78-.63-14.68,6.81l-1,4.21-3.86-3.3c-25.84-22-35.18-29.14-45.43-34.89-29.56-16.57-60.94-24.65-112.2-28.93-28.22-2.32-69.09-3.44-87.55-2.46C351,114.41,322.6,123,285.53,144.46l-7,4.07-22.82.84c-12.5.5-24.22,1.06-26,1.34l-3.16.42,2.67,1.26c3.93,1.9,10.53,2.74,17.69,2.32l6.32-.35-6,.91c-10.53,1.62-13.62,3-23.1,10.6a66.45,66.45,0,0,1-6.24,4.57c-.29,0,2-2.53,5.05-5.55,5-5,5.41-5.62,4.21-6.25a15.56,15.56,0,0,0-8.42-1.26c-3.93,1-13.27,11.51-15,16.78-1.19,3.72-.42,4.35,4.36,3.37,5-1.05,11.09-4,18.81-9.13a67.88,67.88,0,0,1,10.32-5.69c5-1.89,10.54-2.17,11.45-.7s.84,7.51-.07,9.27c-1.27,2.32-6,3.86-19.94,6.46-24.3,4.56-29.91,6.88-37.28,15.8-7.59,9.12-11.94,20.92-14,37.84-.48,3.93-.88,10.72-1.16,18.29h3.34c1.66-12.6,5.19-23.48,9.76-29.87,4.14-6,8.85-7.45,14.32-4.5,2.95,1.55,7.3,8.64,9.9,15.87a93,93,0,0,1,4.2,18.49l131.33,0c-1.35-1.3-3.14-3-5.07-5a170.25,170.25,0,0,0-53.86-36.72c-11.44-4.91-10.46-4.42-8.49-4.42a80.36,80.36,0,0,1,9.13,1.05c8.28,1.19,16.57,2.95,36.22,7.58,26,6.11,44.73,9.55,52,9.55h3.44l-4.49,2.18c-11.45,5.4-24.37,18.25-25.77,25.7,0,0,0,0,0,.07h17.62c4.07-6.48,9-11.24,14.48-13.9,4.07-2,5.05-2.17,10.11-2,4.21.14,6.53.63,9.12,2,5.41,2.61,10.31,7.44,14.36,13.86h4.33l-5.71-10.41c-11.23-20.53-13.5-24.7-14.08-25.81h0c-1.59-3.19-2-13.47,4.37-14.65s7,0,17.57,5.12l22.35,10.95L514.38,248l7.18,3.53c1.07.32,2,.6,2.62.84,2.67,1,13.9,6.25,25,11.8s20.58,10.11,21,10.25c.13.05.06.38-.16.9l11.31,5.56c4.11-6.9,6.11-10.61,5.84-10.88s-5.13-2.53-10.95-5.13c-11.1-4.84-33.36-15.66-32.51-15.73.21-.07,5.26,1,11.23,2.32,35.74,8,46.34,9.13,97.81,10.25,17.76.35,37.7,1.06,44.23,1.55l11.94.91-5.62.49c-3.09.28-22.68,1-43.53,1.69s-41.85,1.33-46.62,1.61l-8.71.42L598,279.62,593.79,287l10.55,5.2,6.27,3.09c1.54.77,10.72,5.08,11.51,9.21s-8.06,9.26-39.17,24.56c32.31.65,118.87,1.25,121.39.68,4.21-1,6.95-2.81,11.16-7.38,3.94-4.28,4-4.21,2.53,2.88-.56,2.67-.77,5.13-.49,5.41.7.7,15,1.9,23.66,2,5.76.07,6,.14,3.16.7-26.69,5.3-117.58,7.57-180.61,5.1l-49.49,24.29L501.5,369c97.32,3.39,217.72,3.83,247.71,0,6.81-.85,8.49-1.55,8.49-3.44,0-2.88-7-5.55-20.5-7.73-5.13-.84-9.76-1.68-10.25-1.82s1.47-1.48,4.35-3a60.41,60.41,0,0,0,8.08-4.92c2.52-2,3.93-2.45,13.13-3.93,12.14-2,13.83-2.81,13.06-6.18-.92-4.14-.43-9.9,1.4-16.71C769.85,311,770.41,303.42,769.64,287.69ZM264.19,204.07a35.86,35.86,0,0,0-12.85,10.67c-4.43,6.39-5.62,14-4,24.64.64,4.22.64,5.13-.28,6s-1.4.92-3.93-.14c-3.51-1.4-10-1.4-13.76-.07a11.59,11.59,0,0,1-2.88.84c0-.07-.42-2.94-.91-6.31-1-7.45-3.09-14.47-5.48-18.75-4.42-7.65-8.56-11.23-16.29-13.83l-4.63-1.55,3.23-1.4c2.81-1.26,10.25-2.74,19.59-3.86,4.56-.56,24.15.35,34.4,1.54C266.29,203.09,266.5,203.16,264.19,204.07Zm5.89-30.82c-.77,0-.28-3.73.78-5.83a46.2,46.2,0,0,1,9.33-11.24c2.6-2,3.3-2.24,3.87-1.26C285.39,157,273,173.25,270.08,173.25Zm127.37,14.53c-1.06,2.88-1.55,1.54-4.08-10.95-1.19-5.9-3.08-13.69-4.28-17.28-1.89-6-2-7-1.33-10.6.7-3.86,2.31-7.3,3.44-7.3.28,0,.84,1.69,1.26,3.65s1.48,6.53,2.18,9.9C397.87,169.38,399.06,183.5,397.45,187.78Zm236.4,4.35c-1.83,1.55-20.36,3.65-45.36,5.13-16.29,1-90.08,1.05-103.56.07-8.28-.56-8.07-.63,10.88-1.13,83.06-2.24,96.05-3.58,106.79-10.53,5.62-3.65,6.82-7.3,4.08-13-3.3-6.81-15.1-16.92-31.46-27.1-4.28-2.6-7.79-4.91-7.79-5,0-.49,4.21,1,8.56,3,14,6.46,37.08,23.17,50.14,36.3C633.22,187.08,635.53,190.73,633.85,192.13Z" transform="translate(-106.83 -111.8)" fill="#e0a100" opacity="0.8"/>
	<path d="M381.2,361.11c8.93,1.66,19.26,2.57,38.84,3.91l2.12-3.87Z" transform="translate(-106.83 -111.8)" fill="#e0a100" opacity="0.8"/>
</svg>