<svg version="1.1" xmlns="http://www.w3.org/2000/svg" xmlns:xlink="http://www.w3.org/1999/xlink" x="0px" y="0px"
	 viewBox="0 0 981 982" style="enable-background:new 0 0 981 982;" xml:space="preserve" width="20px" height="20px">
<g transform="translate(0.000000,982.000000) scale(0.100000,-0.100000)">
	<path d="M1730,9789c-118-30-244-97-386-204c-496-376-976-841-1185-1151c-59-88-121-216-138-286c-22-93-9-337,30-558
		c177-1009,877-2221,2068-3580c477-544,1184-1256,1746-1761C5437,837,6862,55,7935,13c184-7,237,3,357,63c176,88,369,245,628,510
		c275,281,611,679,740,875c195,298,201,634,14,864c-39,48-141,119-732,514c-964,642-1295,859-1387,907c-177,91-404,84-650-22
		c-115-49-157-81-189-145c-35-70-35-137-1-206c63-125,185-158,340-90c114,49,149,59,219,61l61,1l185-120c102-66,549-362,993-657
		c902-600,845-555,834-668c-7-85-42-152-153-300c-176-234-381-467-614-701c-230-230-373-350-485-404l-58-29l-141,12
		c-976,81-2229,787-3671,2067c-255,226-502,461-846,805c-573,572-945,981-1357,1493C1067,6030,523,7117,474,7934l-7,114l37,67
		c126,230,499,608,976,990c267,214,336,251,455,243c45-3,70-10,86-23c41-37,1302-1943,1321-1996c6-17,8-52,4-79
		c-15-113-53-190-354-720c-285-502-295-520-303-564c-16-86,10-143,175-371c282-392,693-854,1295-1456c495-495,811-783,1189-1086
		c176-142,413-312,477-343c174-84,370,71,325,258c-15,64-55,112-149,174c-737,495-2063,1796-2736,2686c-71,95-77,105-66,128
		c6,14,78,143,160,287c299,528,345,614,385,720c80,212,82,439,4,590c-23,46-628,967-1051,1602c-201,301-318,467-354,501
		c-62,60-170,116-263,138C1988,9816,1824,9814,1730,9789z" fill="#e0a100"/>
</g>
</svg>
