<svg xmlns="http://www.w3.org/2000/svg" viewBox="0 0 599.89 595.5" width="50px" height="50px">
	<path d="M320.7,5.7c-.3,2.1-1.8,13.9-3.2,26.3s-2.8,23.5-3,24.6c-.4,1.7-1.7,2.4-6.7,3.4-18.4,3.5-50.6,16.6-68.7,27.8-5.3,3.4-8.7,4.9-9.5,4.4-.6-.5-10.7-8.5-22.5-17.7L185.8,57.7,157.4,86.1c-15.6,15.6-28.4,28.7-28.4,29.2s7.4,10.2,16.5,21.8,16.8,21.6,17.1,22.3-1.3,4.4-3.5,8a286.23,286.23,0,0,0-18.4,37.2c-3.2,7.8-9.4,28.3-11.1,36.5l-.6,2.6-28,3.4-28,3.3v81.2l28,3.3,28,3.4.6,2.6c4.7,21.1,17.5,55.9,20.4,54.9.5-.1,14.5-12.6,31-27.7,22.6-20.5,30-27.8,29.5-29-1.9-4.5-5.4-20.8-6.5-29.5-1.7-13.3-.7-37.1,2-50.1a158.66,158.66,0,0,1,40.9-77.7c48.7-50.8,123-63.9,185.2-32.7a149.24,149.24,0,0,1,39.1,27.8c26,25,42.1,55.8,47.3,90.6,1.9,12.8,1.9,34.2,0,47-13.9,91.8-106,153.6-194.3,130.3a141.63,141.63,0,0,0-14.3-3.2c-2.4-.1-5.5,3.6-26.8,31.3-13.3,17.3-23.8,31.8-23.4,32.2,3,2.9,39.9,15.7,50.1,17.4,5,.8,4.3-1.7,7.7,27.5,1.4,12.4,2.9,24.2,3.2,26.3l.6,3.7h80.5l.6-3.7c.3-2.1,1.7-13.2,3.1-24.8,3.8-31.6,2.6-28.1,9.8-29.5,18.1-3.5,49.7-16.3,68.7-27.8l8.4-5.1,3.6,2.7c1.9,1.5,12,9.3,22.4,17.5l19,14.8,28.3-28.3c15.6-15.5,28.3-28.7,28.3-29.1s-7.2-10-15.9-21.1-16.5-21.2-17.1-22.3c-1-1.6-.7-2.7,2.2-7.3,12.4-19.7,22.8-44.6,28.7-68.6l2.3-9.1,27.9-3.4,27.9-3.3V250.4l-27.9-3.3-27.9-3.4-2.1-8.6C586,210.3,575.8,186,563.2,166c-3-4.7-3.3-5.7-2.2-7.5.7-1.1,8.4-11.1,17.2-22.2s15.8-20.5,15.8-21-12.8-13.6-28.4-29.2L537.3,57.8,518.4,72.7C508,80.9,497.9,88.8,496,90.2l-3.6,2.7L484,87.8C465,76.3,433.4,63.5,415.3,60c-7.2-1.4-6.1,2.1-9.8-30-1.4-11.8-2.8-23-3.1-24.8L401.9,2H321.3Z" transform="translate(-50.11 -2)" fill="#e0a100"/>
	<path d="M362.5,180.4c-37.8,5.9-68.5,33.7-78.7,71.1-3,11.2-3.1,37.4-.2,48.1l2,7.1L170.8,416.5C41.8,539.8,50.8,530.2,50.2,546c-.6,13.7,1.4,17.8,16.2,32.8,15.4,15.7,20.7,18.7,33.6,18.7,7.6,0,9.3-.4,15-3.2,6.1-3,13.3-10.3,109.5-110.8,56.7-59.2,105.3-110.1,108-113.2l5.1-5.5,9.5,3a96.81,96.81,0,0,0,55.4,1.7c27.3-6.9,51-26.8,63-52.8,5.6-12.2,7.7-21.5,8.2-37.6.5-12.7.4-14.3-1-13.8-.8.3-16.7,11.5-35.3,24.8-19.3,13.8-35.7,24.8-38.2,25.7-6.2,2.1-14.2,1.1-20.1-2.5-3.7-2.3-7.6-7.1-19.8-24.1-9.7-13.5-15.7-22.8-16.4-25.5a24.84,24.84,0,0,1,6-23c1.4-1.6,17.8-13.7,36.4-26.9S419,189.3,419,188.9s-2.6-1.7-5.7-2.9C396.2,179.6,379.6,177.8,362.5,180.4ZM110.4,524.2c9.4,2.8,15.6,14,13.5,24-1.5,6.7-8.4,14.1-14.9,15.8-12.8,3.4-26-6.7-26-19.9,0-6.2,1-8.9,5.2-13.6C94,523.8,101.7,521.6,110.4,524.2Z" transform="translate(-50.11 -2)" fill="#e0a100"/>
</svg>