<svg version="1.1" xmlns="http://www.w3.org/2000/svg" xmlns:xlink="http://www.w3.org/1999/xlink" x="0px" y="0px" viewBox="0 0 1000 1000" enable-background="new 0 0 1000 1000" xml:space="preserve" width="35px" height="35px">
<path d="M856.4,447.7V299.5H54.5v579.1h432.1c7.4,15.5,15.5,30.6,25.3,44.5H54.5c-23,0-44.5-25.7-44.5-44.5l0-712.8c0-21.5,23-44.5,44.5-44.5h133.6v66.8c0,36.9,29.9,66.8,66.8,66.8c36.9,0,66.8-29.9,66.8-66.8v-66.8h267.3v66.8c0,36.9,29.9,66.8,66.8,66.8c36.9,0,66.8-29.9,66.8-66.8v-66.8h133.6c25.8,0,44.7,20.2,44.7,44.5L901,464.4C886.7,457.6,871.8,452.3,856.4,447.7z M655.9,210.5c-12.3,0-22.3-10-22.3-22.3V54.5c0-12.3,10-22.3,22.3-22.3s22.3,10,22.3,22.3v133.6C678.2,200.5,668.2,210.5,655.9,210.5z M255,210.5c-12.3,0-22.3-10-22.3-22.3V54.5c0-12.3,10-22.3,22.3-22.3c12.3,0,22.3,10,22.3,22.3v133.6C277.3,200.5,267.3,210.5,255,210.5z M633.6,344.1v89.1h133.6c-66.4,0-127.6,21.1-178.2,56.4v-11.9H500v89.1h11.9c-35.3,50.6-56.4,111.8-56.4,178.2h-89.1v89.1h-44.5V745h-89.1v89.1h-44.5V745H99.1v-44.5h89.1v-89.1H99.1v-44.5h89.1v-89.1H99.1v-44.5h89.1v-89.1h44.5v89.1h89.1v-89.1h44.5v89.1h89.1v-89.1H500v89.1h89.1v-89.1L633.6,344.1L633.6,344.1z M321.8,477.7h-89.1v89.1h89.1V477.7z M321.8,611.4h-89.1v89.1h89.1V611.4z M455.5,477.7h-89.1v89.1h89.1V477.7z M455.5,611.4h-89.1v89.1h89.1V611.4z M811.8,437.7c-14.7-2.1-29.3-4.5-44.5-4.5h44.5V437.7z M455.5,834.1V745c0,31.2,6,60.7,14.5,89.1H455.5z" fill="#ffffff"/><path d="M767.3,967.7c-123,0-222.7-99.7-222.7-222.7c0-123,99.7-222.7,222.7-222.7C890.3,522.3,990,622,990,745C990,868,890.3,967.7,767.3,967.7z M869.2,655.9l-125,119.2l-78.8-75.2l-31.7,30.2l110.1,103.9l157.2-148L869.2,655.9z" fill="#ffffff"/>
</svg>